<svg xmlns="http://www.w3.org/2000/svg" width="210" height="167" fill="none" viewBox="0 0 210 167">
    <g filter="url(#filter0_d)">
        <circle cx="66.788" cy="76.905" r="48" fill="#FF6D3F" transform="rotate(-15 66.788 76.905)"/>
        <g fill="#fff" clip-path="url(#clip0)">
            <path d="M59.333 49.087c-10.547 2.826-16.827 13.703-14 24.25 2.825 10.546 13.703 16.826 24.25 14 10.543-2.825 16.826-13.703 14-24.25-2.826-10.546-13.707-16.825-24.25-14zm14.453 13.726l-2.195 5.023 1.81 5.31c.204.59.084 1.245-.319 1.73-.245.293-.568.495-.922.59-.23.061-.475.079-.716.042l-5.228-.734-4.157 3.25c-.493.385-1.15.49-1.735.27-.588-.219-1.018-.726-1.141-1.338l-1.087-5.504-4.413-3.253c-.491-.36-.764-.947-.73-1.556.035-.609.376-1.155.907-1.458l4.585-2.61 1.485-5.281c.342-1.225 2.081-1.69 2.987-.8l3.926 3.83 5.28-.032c.606-.003 1.177.303 1.513.81.337.505.391 1.15.15 1.71z"/>
            <path d="M47.92 84.73l-4.293 16.084c-.187.706.07 1.454.646 1.896.577.441 1.363.499 1.995.128l9.474-5.479 5.452 9.482c.362.63 1.07.98 1.791.888.079-.014.16-.032.233-.051.615-.165 1.105-.647 1.272-1.273l4.071-15.171c-7.713 1.38-15.363-1.24-20.642-6.504zM98.802 86.03L87.039 74.248C85.103 81.445 79.785 87.54 72.414 90.2l11.111 11.103c.459.459 1.124.631 1.74.466.072-.019.151-.044.222-.074.673-.281 1.108-.938 1.111-1.666l-.02-10.937 10.945.008c.732.005 1.38-.437 1.663-1.109.283-.668.128-1.443-.384-1.962z"/>
        </g>
    </g>
    <g filter="url(#filter1_d)">
        <circle cx="162.281" cy="101.011" r="32" fill="#01D1DD" transform="rotate(-15 162.281 101.011)"/>
        <path fill="#fff" d="M172.99 93.402c-.103-.105-.232-.18-.375-.22-.142-.038-.292-.038-.434 0l-10.545 2.825-1.851-13.98c-.03-.187-.121-.357-.259-.485s-.316-.205-.503-.22c-.188-.015-.375.034-.531.138-.157.105-.274.259-.332.438l-6.804 25.902c-.042.142-.046.293-.01.437.035.144.108.276.212.382.103.106.233.183.376.222.143.04.293.04.437.002l10.387-2.783 2.223 13.903c.035.184.13.351.27.474.141.124.318.197.505.208.187.011.372-.041.526-.147.154-.106.268-.261.323-.44l6.593-25.843c.04-.142.042-.291.006-.434-.037-.143-.11-.274-.214-.379z"/>
    </g>
    <g filter="url(#filter2_d)">
        <circle cx="142.749" cy="35.846" r="28" fill="#FF443F" transform="rotate(-15 142.749 35.846)"/>
        <path fill="#fff" d="M139.222 22.685c-.59.158-1.195-.187-1.351-.77l-.739-2.757c-.156-.583.196-1.185.785-1.343.59-.158 1.195.188 1.351.77l.739 2.757c.156.584-.196 1.185-.785 1.343zM149.607 24.012c-.274.073-.575.044-.838-.108-.528-.3-.707-.97-.401-1.494l1.449-2.478c.306-.524.983-.706 1.511-.405.527.301.707.97.4 1.495l-1.448 2.477c-.155.262-.4.44-.673.513zM130.892 29.026c-.273.074-.574.044-.837-.107l-2.494-1.422c-.527-.3-.707-.97-.4-1.494.307-.525.983-.706 1.511-.405l2.493 1.421c.528.301.707.97.4 1.495-.155.262-.399.44-.673.512zM150.115 46.252l.472 1.761c.362 1.352-.465 2.767-1.832 3.133l-3.56.954c-1.196.32-2.733-.234-3.262-2.206l-.362-1.352 8.544-2.29zM146.674 25.373c-2.838-1.248-6.11-1.156-8.944.283-3.566 1.786-5.812 5.649-5.595 9.592.229 4.045 2.7 7.459 6.427 8.952 1.007.394 1.847 1.196 2.345 2.255l.003.014c.025-.022.068-.033.096-.04l8.544-2.29c.028-.008.043-.011.075-.005l-.004-.014c-.087-1.124.289-2.282 1.068-3.306 1.901-2.532 2.541-5.723 1.726-8.766-.8-2.986-2.886-5.417-5.741-6.675zm1.302 8.62c-.584.156-1.197-.193-1.351-.77-.574-2.142-2.79-3.405-4.954-2.825-.584.156-1.196-.193-1.351-.77-.155-.578.201-1.187.785-1.343 3.332-.893 6.772 1.069 7.656 4.365.154.577-.201 1.186-.785 1.342z"/>
    </g>
    <defs>
        <filter id="filter0_d" width="133.576" height="133.576" x="0" y="12.117" color-interpolation-filters="sRGB" filterUnits="userSpaceOnUse">
            <feFlood flood-opacity="0" result="BackgroundImageFix"/>
            <feColorMatrix in="SourceAlpha" values="0 0 0 0 0 0 0 0 0 0 0 0 0 0 0 0 0 0 127 0"/>
            <feOffset dy="2"/>
            <feGaussianBlur stdDeviation="4"/>
            <feColorMatrix values="0 0 0 0 0 0 0 0 0 0 0 0 0 0 0 0 0 0 0.32 0"/>
            <feBlend in2="BackgroundImageFix" result="effect1_dropShadow"/>
            <feBlend in="SourceGraphic" in2="effect1_dropShadow" result="shape"/>
        </filter>
        <filter id="filter1_d" width="94.384" height="94.384" x="115.089" y="55.819" color-interpolation-filters="sRGB" filterUnits="userSpaceOnUse">
            <feFlood flood-opacity="0" result="BackgroundImageFix"/>
            <feColorMatrix in="SourceAlpha" values="0 0 0 0 0 0 0 0 0 0 0 0 0 0 0 0 0 0 127 0"/>
            <feOffset dy="2"/>
            <feGaussianBlur stdDeviation="4"/>
            <feColorMatrix values="0 0 0 0 0 0 0 0 0 0 0 0 0 0 0 0 0 0 0.32 0"/>
            <feBlend in2="BackgroundImageFix" result="effect1_dropShadow"/>
            <feBlend in="SourceGraphic" in2="effect1_dropShadow" result="shape"/>
        </filter>
        <filter id="filter2_d" width="72.014" height="72.014" x="106.742" y="1.839" color-interpolation-filters="sRGB" filterUnits="userSpaceOnUse">
            <feFlood flood-opacity="0" result="BackgroundImageFix"/>
            <feColorMatrix in="SourceAlpha" values="0 0 0 0 0 0 0 0 0 0 0 0 0 0 0 0 0 0 127 0"/>
            <feOffset dy="2"/>
            <feGaussianBlur stdDeviation="4"/>
            <feColorMatrix values="0 0 0 0 0 0 0 0 0 0 0 0 0 0 0 0 0 0 0.32 0"/>
            <feBlend in2="BackgroundImageFix" result="effect1_dropShadow"/>
            <feBlend in="SourceGraphic" in2="effect1_dropShadow" result="shape"/>
        </filter>
        <clipPath id="clip0">
            <path fill="#fff" d="M0 0H57.6V57.6H0z" transform="rotate(-15 230.491 -91.42)"/>
        </clipPath>
    </defs>
</svg>
