<svg xmlns="http://www.w3.org/2000/svg" width="36" height="36" fill="none" viewBox="0 0 36 36">
    <circle cx="18" cy="18" r="18" fill="#3C3647"/>
    <path fill="#fff" d="M24.391 27.008l1.776-1.944-1.824-1.632c1.2-1.56 1.872-3.624 1.872-5.976 0-5.136-3.144-8.952-8.208-8.952s-8.232 3.816-8.232 8.952 3.168 8.928 8.232 8.928c1.68 0 3.168-.432 4.392-1.176l1.992 1.8zm-6.36-3.48c-3.144 0-4.704-2.664-4.704-6.072 0-3.432 1.56-6.096 4.704-6.096 3.144 0 4.632 2.664 4.632 6.096 0 1.416-.264 2.712-.792 3.744l-1.56-1.44-1.776 1.92 1.512 1.392c-.576.312-1.248.456-2.016.456z"/>
</svg>
